<?xml version="1.0" encoding="utf-8"?>
<!-- Generator: Adobe Illustrator 23.0.3, SVG Export Plug-In . SVG Version: 6.00 Build 0)  -->
<svg version="1.1" id="Layer_1" xmlns="http://www.w3.org/2000/svg" xmlns:xlink="http://www.w3.org/1999/xlink" x="0px" y="0px"
	 viewBox="0 0 889 579" style="enable-background:new 0 0 889 579;" xml:space="preserve">
<style type="text/css">
	.st0{stroke:#000000;stroke-miterlimit:10;}
	.st1{fill:#FF0200;stroke:#FF0000;stroke-miterlimit:10;}
	.st2{fill:#FF0200;}
	.st3{fill:none;}
</style>
<g>
	<g id="LOGO">
		<g id="LOGO_DESIGN">
			<path class="st0" d="M175.4,185.7l-5.8-77.7C195.5,93.6,230,79.2,230,79.2c60.4-23,92.1-31.7,92.1-31.7
				c51.8-11.5,83.5-11.5,83.5-11.5c66.2,0,100.7,8.6,100.7,8.6c74.8,17.3,97.8,25.9,97.8,25.9c66.2,28.8,77.7,31.7,77.7,31.7
				c2.9,25.9,0,31.7,0,31.7c23,0,23,0,23,0h5.8c0-5.8,0-40.3,0-40.3c-8.6-5.8-23-11.5-23-11.5l-46-23
				c-25.9-11.5-51.8-20.1-51.8-20.1c-23-8.6-48.9-14.4-48.9-14.4C506.3,15.9,483.3,13,483.3,13c-37.4-2.9-54.7-2.9-54.7-2.9
				c-37.4,0-77.7,5.8-77.7,5.8c-69.1,11.5-97.8,25.9-97.8,25.9c-48.9,20.1-66.2,28.8-66.2,28.8c-23,11.5-40.3,23-40.3,23
				c0,46,2.9,100.7,2.9,100.7L175.4,185.7z"/>
			<path d="M149.5,246.1v14.4c0,5.8,2.9,14.4,2.9,14.4c20.1,0,28.8,5.8,28.8,5.8l-46,2.9c5.8-5.8,8.6-8.6,8.6-8.6
				c0-20.1-5.8-34.5-5.8-34.5c-5.8,0-8.6,0-8.6,0c8.6-11.5,31.7-25.9,31.7-25.9c14.4-8.6,34.5-17.3,34.5-17.3
				c11.5-2.9,28.8-5.8,28.8-5.8c-5.8,5.8-5.8,11.5-5.8,11.5c8.6-11.5,17.3-17.3,17.3-17.3c14.4-8.6,23-8.6,23-8.6
				c14.4-2.9,25.9,0,25.9,0c11.5,2.9,25.9,11.5,25.9,11.5c2.9-2.9-11.5-8.6-11.5-8.6c2.9-2.9,14.4-2.9,14.4-2.9h20.1
				c11.5,0,25.9,0,25.9,0c17.3,0,48.9,0,48.9,0c34.5,0,69.1,0,69.1,0c34.5,0,74.8-5.8,74.8-5.8c37.4-2.9,71.9-8.6,71.9-8.6
				c28.8,0,60.4-8.6,60.4-8.6c8.6-2.9,31.7-2.9,31.7-2.9c-5.8,8.6-5.8,17.3-5.8,17.3c0,8.6,5.8,20.1,5.8,20.1
				c5.8,11.5,8.6,20.1,8.6,20.1c2.9,5.8,2.9,14.4,2.9,14.4c0,5.8-2.9,14.4-2.9,14.4c-5.8-11.5-8.6-20.1-8.6-20.1
				c-5.8-8.6-23-17.3-23-17.3c-5.8-2.9-11.5-2.9-11.5-2.9c2.9-8.6,5.8-8.6,5.8-8.6c5.8-2.9,14.4-2.9,14.4-2.9
				c-2.9-5.8-8.6-11.5-8.6-11.5c-17.3,0-43.2,2.9-43.2,2.9c-5.8-2.9-17.3-5.8-17.3-5.8c14.4,8.6,25.9,17.3,25.9,17.3
				c-14.4-5.8-31.7-8.6-31.7-8.6c-17.3,0-28.8,0-28.8,0c-17.3,5.8-28.8,11.5-28.8,11.5c-11.5,8.6-20.1,20.1-20.1,20.1
				c-5.8,8.6-8.6,20.1-8.6,20.1c0-20.1,5.8-31.7,5.8-31.7c5.8-8.6,25.9-23,25.9-23c-14.4,5.8-20.1,8.6-20.1,8.6
				c-25.9,2.9-166.9,14.4-166.9,14.4c-28.8,2.9-57.6,2.9-57.6,2.9c5.8,11.5,14.4,28.8,14.4,28.8c-8.6-11.5-20.1-23-20.1-23
				c-8.6-8.6-23-14.4-23-14.4c-14.4-5.8-28.8-5.8-28.8-5.8c-20.1,2.9-37.4,11.5-37.4,11.5c-11.5,8.6-17.3,17.3-17.3,17.3
				c-5.8,5.8-11.5,14.4-11.5,14.4l2.9-11.5c-17.3,0-57.6,14.4-57.6,14.4l23,14.4L149.5,246.1z"/>
			<polygon points="345.2,211.6 373.9,249 529.3,249 368.2,263.4 			"/>
			<path class="st1" d="M348,171.3c2.9-2.9,17.3-8.6,17.3-8.6c28.8-14.4,63.3-28.8,63.3-28.8c14.4-5.8,31.7-8.6,31.7-8.6
				c37.4-2.9,92.1,0,92.1,0c25.9,2.9,66.2,14.4,66.2,14.4c34.5,8.6,52.9,17.5,52.9,17.5l-62,7.8l-61.2,6.4l-62,5.6
				c20.2-8.5,49-11.4,49-11.4c2.9-14.4,5.8-31.7,5.8-31.7C526.4,131,489,131,489,131c-17.3,0-43.2,5.8-43.2,5.8
				c-9.5,2.7-80.4,40.2-80.4,40.2l-22.6,0.1L348,171.3z"/>
			<path class="st0" d="M549.5,139.7l-5.8,23c11.5,0,28.8-2.9,28.8-2.9c14.4-2.9,25.9-5.8,25.9-5.8c2.9-2.9,0-5.8,0-5.8
				c-11.5-2.9-20.1-5.8-20.1-5.8c-11.5-2.9-28.8-5.8-28.8-5.8V139.7z"/>
			<polygon points="77.5,306.6 480.4,277.8 768.2,254.8 687.6,266.3 546.6,280.7 77.5,332.5 			"/>
			<path class="st2" d="M96.6,462.1l682-74.8l1.1,28.7l-204.3,11.5c-8.6,14.4-34.5,40.3-34.5,40.3c-28.8,28.8-118,100.7-118,100.7
				c-28.8-17.3-143.9-118-143.9-118L96.6,462.1z"/>
			<path d="M317.8,449l218.7-17.3c-20.1,23-54.7,54.7-54.7,54.7c-17.3,14.4-63.3,51.8-63.3,51.8c-31.7-25.9-60.4-48.9-60.4-48.9
				C335.1,472,317.8,449,317.8,449z"/>
		</g>
	</g>
	<path id="SVGID_x5F_1_x5F_" class="st3" d="M-12,439.4l843-93.7"/>
	<text>	<textPath  xlink:href="#SVGID_x5F_1_x5F_" startOffset="9.753%">
<tspan  style="fill:#FF0000; font-family:'MyriadPro-Regular'; font-size:95.6596px;">A+</tspan><tspan  style="font-family:'MyriadPro-Regular'; font-size:95.6596px;"> AUTO</tspan><tspan  style="fill:#FF0000; font-family:'MyriadPro-Regular'; font-size:95.6596px;">MOTIVE</tspan>	</textPath>
</text>
</g>
</svg>
